<?xml version="1.0" encoding="UTF-8" standalone="no"?>
<svg
   xmlns:dc="http://purl.org/dc/elements/1.1/"
   xmlns:cc="http://creativecommons.org/ns#"
   xmlns:rdf="http://www.w3.org/1999/02/22-rdf-syntax-ns#"
   xmlns:svg="http://www.w3.org/2000/svg"
   xmlns="http://www.w3.org/2000/svg"
   viewBox="0 0 206.72 206.72"
   height="206.72"
   width="206.72"
   id="svg20"
   version="1.1">
  <metadata
     id="metadata26">
    <rdf:RDF>
      <cc:Work
         rdf:about="">
        <dc:format>image/svg+xml</dc:format>
        <dc:type
           rdf:resource="http://purl.org/dc/dcmitype/StillImage" />
        <dc:title></dc:title>
      </cc:Work>
    </rdf:RDF>
  </metadata>
  <defs
     id="defs24" />
  <path
     id="path30"
     d="m 97.36607,204.22821 c -6.1083,-0.8388 -10.87405,-2.36065 -16.64672,-5.31581 -9.23934,-4.72983 -16.15282,-11.64145 -20.9314,-20.92578 -3.67322,-7.13672 -5.20404,-13.00369 -5.52064,-21.15817 l -0.19424,-5.00273 -2.5935,-0.21703 C 40.03251,150.65079 28.58898,145.37255 20.56685,137.35041 15.6224,132.40596 10.7715,124.88011 8.5746904,118.2999 c -1.94187,-5.81654 -2.40323,-8.91674 -2.40323,-16.1487 0,-5.605267 0.29268,-7.049003 0.91025,-9.919993 1.05663,-4.91218 2.37479,-8.58564 4.7062396,-13.11543 4.77629,-9.279879 11.66281,-16.1664 20.94269,-20.942691 6.12964,-3.15488 12.21408,-4.932496 18.75742,-5.480125 l 2.602,-0.217767 0.21777,-2.601996 C 55.26663,38.416897 60.5422,26.976632 68.56685,18.951982 73.51129,14.007535 81.03714,9.3441377 87.61736,7.1473197 c 5.81653,-1.9418626 8.806255,-2.6242015 16.03822,-2.6242015 5.60527,0 7.1595,0.3261579 10.03049,0.9437239 4.91218,1.0566346 8.58564,2.3747916 13.11543,4.7062429 9.27988,4.776291 16.1664,11.662812 20.94269,20.942693 3.15488,6.129634 4.93249,12.214076 5.48012,18.75742 l 0.21777,2.601996 2.602,0.217767 c 11.45629,0.958803 22.89655,6.234371 30.9212,14.259021 4.94446,4.944448 9.60786,12.470297 11.80467,19.050515 1.94187,5.81654 2.49699,8.91674 2.49699,16.148703 0,5.60527 -0.19894,7.049 -0.81651,9.91999 -1.05663,4.91218 -2.37479,8.58564 -4.70624,13.11543 -4.77629,9.27988 -11.66282,16.1664 -20.9427,20.94269 -6.12683,3.15343 -12.21459,4.93258 -18.74892,5.47938 l -2.5935,0.21703 -0.19424,5.00273 c -0.3166,8.15448 -1.84743,14.02145 -5.52064,21.15817 -6.82447,13.25928 -18.99228,22.44938 -33.89812,25.60253 -3.63462,0.76886 -12.91429,1.12871 -16.48,0.63906 z m 14.72,-4.15332 c 21.4658,-4.35764 37.27712,-22.95443 37.54877,-44.1637 l 0.0512,-4 -3.2,-0.38874 c -6.29748,-0.76502 -11.52024,-2.24927 -16.24,-4.61522 l -2.48,-1.24318 -2.57507,1.29472 c -3.20688,1.61238 -7.1412,2.93812 -11.50493,3.87678 -2.87099,0.61757 -4.31473,1.34776 -9.92,1.34776 -5.60528,0 -7.04901,-0.73019 -9.92,-1.34776 -4.36373,-0.93866 -8.29806,-2.2644 -11.50493,-3.87678 l -2.57504,-1.29472 -2.48,1.24318 c -4.71977,2.36595 -9.94253,3.8502 -16.24,4.61522 l -3.2,0.38874 0.0512,4 c 0.20929,16.34134 10.11586,32.08245 25.03731,39.78324 5.09967,2.63188 10.11298,4.19996 16.03146,5.01437 3.15086,0.43357 9.33296,0.13488 13.12,-0.63391 z m -57.46792,-52.5637 c 1.46638,-7.31811 2.45511,-10.31951 5.09428,-15.46413 l 1.7881,-3.48562 -1.90136,-3.72939 c -2.17995,-4.27583 -3.706671,-7.96429 -4.738431,-12.76086 -0.61757,-2.87099 -0.943731,-4.31472 -0.943731,-9.91999 0,-5.605267 0.547132,-7.049003 1.164702,-9.919993 0.93866,-4.36373 2.2644,-8.29806 3.87678,-11.504931 l 1.29472,-2.575072 -1.29472,-2.575072 C 56.60244,70.89019 54.83079,64.400314 54.31134,58.55281 l -0.22016,-2.478393 -1.80256,0.190537 C 36.14795,57.971092 22.30918,67.273262 15.00899,81.323642 11.47447,88.126397 9.8955404,94.557537 9.8955404,102.1512 c 0,7.59366 1.5789296,14.0248 5.1134496,20.82755 6.26666,12.06119 17.71405,20.95173 30.83708,23.9494 2.76212,0.63095 6.06043,1.15711 7.9139,1.26246 0.50142,0.0285 0.75685,-0.17372 0.85818,-0.67942 z m 11.56202,-0.70723 c 3.26872,-0.78172 6.56188,-1.90817 8.48317,-2.9017 l 1.0643,-0.55037 -0.94011,-0.68035 c -2.76413,-2.00038 -6.64158,-5.55079 -8.59999,-7.87465 l -2.21853,-2.63252 -1.0487,2.03341 c -1.61652,3.13439 -2.92991,6.68713 -3.80038,10.28007 -0.43617,1.80034 -0.79322,3.35531 -0.79345,3.4555 -6.4e-4,0.31792 4.52052,-0.33225 7.85369,-1.12939 z m 42.07429,1.09536 c 3.63126,-0.44442 8.67865,-1.6715 11.75435,-2.85761 4.00952,-1.54624 3.98635,-1.4828 1.28933,-3.53052 -3.16747,-2.4049 -6.70482,-5.99481 -9.30259,-9.44078 -2.46692,-3.2724 -6.50754,-11.04511 -7.44381,-14.31922 -0.33972,-1.188 -0.69327,-2.16 -0.78567,-2.16 -0.0924,0 -0.44595,0.972 -0.78567,2.16 -0.93627,3.27411 -4.97689,11.04682 -7.44381,14.31922 -2.59777,3.44597 -6.13513,7.03588 -9.30259,9.44078 -2.69703,2.04772 -2.72019,1.98428 1.28933,3.53052 6.66519,2.57036 14.38433,3.63439 20.73113,2.85761 z m 40.1846,-3.30281 c -0.88716,-3.68132 -2.19383,-7.2316 -3.82723,-10.39873 l -1.0487,-2.03341 -2.21853,2.63252 c -1.95736,2.3226 -5.77851,5.82222 -8.61921,7.89393 l -0.95932,0.69963 2.14909,0.97861 c 2.59439,1.18138 6.67391,2.39144 10.25146,3.04076 2.49137,0.45218 4.7534,0.73106 4.98261,0.61428 0.0567,-0.0289 -0.26284,-1.57132 -0.71017,-3.42759 z m 11.80701,2.62489 c 13.78092,-2.7071 25.76411,-11.70743 32.27708,-24.24265 3.53452,-6.80275 5.11345,-13.23389 5.11345,-20.82755 0,-7.593663 -1.57893,-14.024803 -5.11345,-20.827558 -7.3002,-14.05038 -21.13897,-23.35255 -37.27963,-25.058688 l -1.80256,-0.190537 -0.22016,2.478393 c -0.51945,5.847504 -2.2911,12.33738 -4.64715,17.023322 l -1.29472,2.575072 1.29472,2.575072 c 1.61238,3.206871 2.93812,7.141201 3.87678,11.504931 0.61757,2.87099 1.03526,4.314726 1.03526,9.919993 0,5.60527 -0.41769,7.049 -1.03526,9.91999 -1.03176,4.79657 -2.33752,8.48503 -4.51746,12.76086 l -1.90136,3.72939 1.7881,3.48562 c 2.64302,5.15213 3.6088,8.08451 5.09799,15.47891 0.14089,0.69958 0.24331,0.72494 2.13817,0.52941 1.09461,-0.11296 3.4302,-0.48825 5.1902,-0.83398 z M 82.8054,139.03119 c 8.94522,-6.71098 15.05943,-15.89224 17.61905,-26.45724 0.42944,-1.77252 0.78098,-3.30473 0.78121,-3.40492 6.4e-4,-0.31791 -4.52053,0.33225 -7.8537,1.12939 -10.63641,2.54374 -19.51435,8.47842 -26.63204,17.80286 -0.78796,1.03226 5.62525,7.80116 11.28615,11.91212 0.88,0.63906 1.67205,1.16549 1.76011,1.16986 0.0881,0.004 1.4557,-0.96407 3.03922,-2.15207 z m 46.68245,0.99234 c 3.41787,-2.43612 6.76848,-5.49708 9.19733,-8.40225 2.12067,-2.53655 2.45518,-3.09013 2.12704,-3.52 -5.81796,-7.62174 -13.05901,-13.13477 -21.35204,-16.25653 -3.70677,-1.39534 -13.13515,-3.31617 -13.1337,-2.67572 2.3e-4,0.10019 0.35177,1.6324 0.78121,3.40492 2.55962,10.565 8.67383,19.74626 17.61905,26.45724 1.58352,1.188 2.93397,2.16 3.00101,2.16 0.067,0 0.85908,-0.52545 1.7601,-1.16766 z M 69.18467,119.15505 c 3.27698,-3.17522 7.16854,-5.92994 11.53468,-8.16507 6.16833,-3.1577 10.77629,-4.56084 17.76672,-5.41004 2.87421,-0.34916 3.25409,-0.25918 3.34132,-0.87067 0.0897,-0.62911 -0.1367,-0.89652 -2.4442,-1.10159 -6.55819,-0.58282 -12.57366,-2.3496 -18.65255,-5.478357 -6.4984,-3.344676 -12.1619,-8.028486 -16.30649,-13.485736 -0.95807,-1.26148 -1.84473,-2.23008 -1.97039,-2.15242 -0.50194,0.31022 -2.34195,5.29758 -3.18284,8.62713 -2.66532,10.553473 -1.68799,20.498603 2.98264,30.351053 l 1.64885,3.47816 1.59043,-1.87816 c 0.87474,-1.03299 2.53606,-2.79443 3.69183,-3.9143 z m 78.0936,-2.53967 c 2.91647,-8.73675 3.22098,-16.635477 0.98295,-25.497083 -0.84089,-3.32955 -2.6809,-8.31691 -3.18285,-8.62713 -0.12565,-0.0777 -1.01232,0.89094 -1.97038,2.15242 -4.14459,5.45725 -9.80809,10.14106 -16.30649,13.485736 -6.07889,3.128757 -12.09436,4.895537 -18.65255,5.478357 -2.30752,0.20507 -2.44554,0.47248 -2.3558,1.10159 0.0872,0.61149 0.37871,0.52151 3.25292,0.87067 6.60427,0.80229 11.47257,2.22942 16.96,4.97177 6.17238,3.08467 11.42465,7.10957 15.33939,11.7548 l 2.21938,2.63352 1.39201,-2.77023 c 0.76561,-1.52363 1.81025,-4.02312 2.32142,-5.55442 z M 101.63855,98.551203 C 100.21914,85.106287 93.56067,73.340142 82.8054,65.271204 c -1.58352,-1.188 -2.95121,-2.16 -3.03933,-2.16 -0.48824,0 -6.2664,4.667955 -8.31922,6.720778 -2.05283,2.052822 -6.72078,7.830988 -6.72078,8.319222 0,0.08812 0.972,1.455814 2.16,3.039328 6.80017,9.064105 16.27278,15.296361 26.96,17.737631 2.50825,0.57296 5.0372,0.99389 7.58492,1.262457 0.27606,0.0291 0.33476,-0.434577 0.20756,-1.639417 z m 10.60752,0.66837 c 11.31409,-2.216 21.28571,-8.546236 28.4,-18.029041 1.188,-1.583514 2.16,-2.95121 2.16,-3.039328 0,-0.488234 -4.66796,-6.2664 -6.72078,-8.319222 -2.05282,-2.052823 -7.83099,-6.720778 -8.31922,-6.720778 -0.0881,0 -1.45581,0.972 -3.03933,2.16 -10.74941,8.064534 -17.4158,19.839913 -18.83113,33.262899 l -0.17534,1.662897 1.6629,-0.17534 c 0.9146,-0.0964 3.1029,-0.457377 4.8629,-0.802087 z m -7.69433,-12.668366 c 0.93627,-3.27411 4.97689,-11.046819 7.44381,-14.319225 2.59072,-3.436618 6.13293,-7.034023 9.27813,-9.422701 1.26149,-0.958061 2.23008,-1.84473 2.15243,-1.970381 -0.31377,-0.507686 -5.31549,-2.34648 -8.72473,-3.207498 -5.32407,-1.344611 -10.07868,-1.767449 -14.58831,-1.297376 -2.00915,0.209431 -5.28619,0.793248 -7.28231,1.297376 -3.40925,0.861018 -8.41096,2.699812 -8.72473,3.207498 -0.0777,0.125651 0.89094,1.01232 2.15242,1.970381 3.14521,2.388678 6.68742,5.986083 9.27814,9.422701 2.46692,3.272406 6.50754,11.045115 7.44381,14.319225 0.33972,1.188 0.69327,2.16 0.78567,2.16 0.0924,0 0.44595,-0.972 0.78567,-2.16 z M 66.2168,69.49715 c 2.008,-2.397792 5.61065,-5.703892 8.59291,-7.885578 l 0.95636,-0.699632 -2.1491,-0.978608 c -3.57612,-1.628419 -9.16804,-3.05311 -14.40381,-3.669757 l -1.5129,-0.178182 0.17818,1.512905 c 0.61665,5.23577 2.04134,10.82769 3.66976,14.403812 l 0.9786,2.149094 0.69964,-0.959322 c 0.38479,-0.527628 1.73046,-2.190256 2.99036,-3.694732 z m 80.43979,0.896793 c 1.17184,-3.038704 2.41552,-8.123801 2.83649,-11.597763 0.17028,-1.405261 0.28113,-2.583501 0.24632,-2.61831 -0.19434,-0.194349 -5.63768,0.666716 -8.43818,1.334812 -3.31302,0.790365 -7.84112,2.387748 -8.83812,3.117831 -0.48698,0.356614 -0.29218,0.594301 1.7709,2.160691 2.96058,2.247824 6.64425,5.931494 8.89207,8.89207 2.04772,2.697024 1.98428,2.720192 3.53052,-1.289331 z M 82.34824,57.340055 c 3.20014,-1.608998 7.13691,-2.935158 11.49783,-3.873213 2.87099,-0.617564 4.31472,-1.097755 9.92,-1.097755 5.60527,0 7.04901,0.480191 9.92,1.097755 4.36373,0.93866 8.29805,2.2644 11.50493,3.876784 l 2.57507,1.29472 2.57507,-1.29472 c 4.68594,-2.356048 11.17582,-4.127699 17.02332,-4.647152 l 2.4784,-0.220163 -0.19054,-1.802553 C 147.94618,34.533086 138.64401,20.694315 124.59363,13.394128 117.79088,9.8596057 111.35974,8.2806727 103.76607,8.2806727 c -7.59367,0 -14.02481,1.578933 -20.82756,5.1134553 -14.05038,7.300187 -23.35255,21.138958 -25.05869,37.27963 l -0.19054,1.802553 2.47839,0.220163 c 5.85363,0.519997 12.41373,2.311741 16.94515,4.628196 1.37129,0.700998 2.53244,1.28174 2.58035,1.290537 0.0479,0.0088 1.24269,-0.565021 2.65507,-1.275152 z"
     style="fill:#000000;stroke-width:0.31999999" />
</svg>
